<svg width="38" height="38" viewBox="0 0 38 38" fill="none" xmlns="http://www.w3.org/2000/svg">
<rect width="38" height="38" rx="19" fill="#2CD673"/>
<path d="M12.625 26.2377C12.4 26.2377 12.175 26.1627 12.025 25.9752C11.6875 25.6377 11.6875 25.1127 12.025 24.7752L23.3875 13.4127H14.3125C13.8625 13.4127 13.4875 13.0377 13.4875 12.5877C13.4875 12.1377 13.8625 11.7627 14.3125 11.7627H25.375C25.825 11.7627 26.2 12.1377 26.2 12.5877V23.7252C26.2 24.1752 25.825 24.5502 25.375 24.5502C24.925 24.5502 24.55 24.1752 24.55 23.7252V14.6877L13.225 26.0127C13.075 26.1627 12.85 26.2377 12.625 26.2377Z" fill="#111928"/>
</svg>
