<svg width="20" height="20" viewBox="0 0 20 20" fill="none" xmlns="http://www.w3.org/2000/svg">
<path d="M11 6.7832C10.7187 6.50195 10.2812 6.50195 10 6.7832C9.71875 7.06445 9.71875 7.50195 10 7.7832L11.875 9.68945H6.46875C6.09375 9.68945 5.78125 10.002 5.78125 10.377C5.78125 10.752 6.09375 11.0645 6.46875 11.0645H11.875L10 12.9707C9.71875 13.252 9.71875 13.6895 10 13.9707C10.125 14.0957 10.3125 14.1582 10.5 14.1582C10.6875 14.1582 10.875 14.0957 11 13.9395L14.0625 10.8457C14.3437 10.5645 14.3437 10.127 14.0625 9.8457L11 6.7832Z" fill="#111928"/>
<path d="M10 0.939453C4.78125 0.939453 0.53125 5.1582 0.53125 10.377C0.53125 15.5957 4.78125 19.8145 10 19.8145C15.2187 19.8145 19.4687 15.5957 19.4687 10.377C19.4687 5.1582 15.2187 0.939453 10 0.939453ZM10 18.4395C5.5625 18.4395 1.9375 14.8145 1.9375 10.377C1.9375 5.93945 5.5625 2.31445 10 2.31445C14.4375 2.31445 18.0625 5.93945 18.0625 10.377C18.0625 14.8145 14.4375 18.4395 10 18.4395Z" fill="#111928"/>
</svg>
