<svg width="38" height="38" viewBox="0 0 38 38" fill="none" xmlns="http://www.w3.org/2000/svg">
<rect width="38" height="38" rx="19" fill="#2CD673"/>
<path d="M12.625 26.2375C12.4 26.2375 12.175 26.1625 12.025 25.975C11.6875 25.6375 11.6875 25.1125 12.025 24.775L23.3875 13.4125H14.3125C13.8625 13.4125 13.4875 13.0375 13.4875 12.5875C13.4875 12.1375 13.8625 11.7625 14.3125 11.7625H25.375C25.825 11.7625 26.2 12.1375 26.2 12.5875V23.725C26.2 24.175 25.825 24.55 25.375 24.55C24.925 24.55 24.55 24.175 24.55 23.725V14.6875L13.225 26.0125C13.075 26.1625 12.85 26.2375 12.625 26.2375Z" fill="#111928"/>
</svg>
