<svg width="20" height="20" viewBox="0 0 20 20" fill="none" xmlns="http://www.w3.org/2000/svg">
<g clip-path="url(#clip0_550_94)">
<path d="M10 0.5625C4.78125 0.5625 0.5625 4.78125 0.5625 10C0.5625 15.2188 4.78125 19.4688 10 19.4688C15.2188 19.4688 19.4688 15.2188 19.4688 10C19.4688 4.78125 15.2188 0.5625 10 0.5625ZM10 18.0625C5.5625 18.0625 1.96875 14.4375 1.96875 10C1.96875 5.5625 5.5625 1.96875 10 1.96875C14.4375 1.96875 18.0625 5.59375 18.0625 10.0312C18.0625 14.4375 14.4375 18.0625 10 18.0625Z" fill="white"/>
<path d="M8.4375 5.28125C8.15625 5 7.71875 5 7.4375 5.28125C7.15625 5.5625 7.15625 6 7.4375 6.28125L11.0938 10L7.4375 13.7188C7.15625 14 7.15625 14.4375 7.4375 14.7187C7.5625 14.8437 7.75 14.9063 7.9375 14.9063C8.125 14.9063 8.3125 14.8437 8.4375 14.6875L12.5938 10.4687C12.875 10.1875 12.875 9.75 12.5938 9.46875L8.4375 5.28125Z" fill="white"/>
</g>
<defs>
<clipPath id="clip0_550_94">
<rect width="20" height="20" fill="white"/>
</clipPath>
</defs>
</svg>
